<svg xmlns="http://www.w3.org/2000/svg" xmlns:xlink="http://www.w3.org/1999/xlink" width="500" zoomAndPan="magnify" viewBox="0 0 375 374.999991" height="500" preserveAspectRatio="xMidYMid meet" version="1.0"><defs><g/><clipPath id="dfb8b02ce7"><path d="M 137.832031 108.078125 L 211 108.078125 L 211 181 L 137.832031 181 Z M 137.832031 108.078125 " clip-rule="nonzero"/></clipPath><clipPath id="f80523bea1"><path d="M 97.921875 108.078125 L 130.921875 108.078125 L 130.921875 141 L 97.921875 141 Z M 97.921875 108.078125 " clip-rule="nonzero"/></clipPath><clipPath id="00fdc7293e"><path d="M 219.75 142.011719 L 247.5 142.011719 L 247.5 169.761719 L 219.75 169.761719 Z M 219.75 142.011719 " clip-rule="nonzero"/></clipPath><clipPath id="09963c136c"><path d="M 150.539062 188.519531 L 167.789062 188.519531 L 167.789062 205.769531 L 150.539062 205.769531 Z M 150.539062 188.519531 " clip-rule="nonzero"/></clipPath></defs><rect x="-37.5" width="450" fill="#ffffff" y="-37.499999" height="449.999989" fill-opacity="1"/><rect x="-37.5" width="450" fill="#fff5f5" y="-37.499999" height="449.999989" fill-opacity="1"/><path fill="#ff3131" d="M 193.652344 169.878906 L 199.632812 163.902344 L 211.769531 176.039062 L 205.792969 182.019531 Z M 193.652344 169.878906 " fill-opacity="1" fill-rule="nonzero"/><path fill="#ff3131" d="M 230.941406 188.425781 C 233.582031 191.066406 233.582031 195.355469 230.941406 198 L 227.75 201.1875 C 225.105469 203.832031 220.820312 203.832031 218.179688 201.1875 L 201.085938 184.085938 C 198.4375 181.441406 198.4375 177.160156 201.082031 174.515625 L 204.269531 171.328125 C 206.914062 168.683594 211.203125 168.683594 213.84375 171.328125 Z M 230.941406 188.425781 " fill-opacity="1" fill-rule="nonzero"/><g clip-path="url(#dfb8b02ce7)"><path fill="#ff3131" d="M 174.144531 108.035156 C 154.0625 108.035156 137.789062 124.308594 137.789062 144.390625 C 137.789062 164.472656 154.0625 180.75 174.144531 180.75 C 194.226562 180.75 210.503906 164.472656 210.503906 144.390625 C 210.503906 124.308594 194.226562 108.035156 174.144531 108.035156 Z M 174.144531 174.019531 C 157.773438 174.019531 144.507812 160.757812 144.507812 144.390625 C 144.507812 128.019531 157.773438 114.757812 174.144531 114.757812 C 190.511719 114.757812 203.777344 128.019531 203.777344 144.390625 C 203.777344 160.757812 190.511719 174.019531 174.144531 174.019531 Z M 174.144531 174.019531 " fill-opacity="1" fill-rule="nonzero"/></g><path fill="#ff3131" d="M 181.597656 162.386719 C 167.097656 162.386719 155.332031 150.625 155.332031 136.121094 C 155.332031 135.734375 155.371094 135.355469 155.390625 134.972656 C 153.476562 138.066406 152.351562 141.710938 152.351562 145.617188 C 152.351562 156.832031 161.445312 165.921875 172.65625 165.921875 C 176.988281 165.921875 180.992188 164.558594 184.292969 162.25 C 183.40625 162.34375 182.507812 162.386719 181.597656 162.386719 Z M 181.597656 162.386719 " fill-opacity="1" fill-rule="nonzero"/><g clip-path="url(#f80523bea1)"><path fill="#ff3131" d="M 97.921875 124.441406 C 112.113281 126.617188 112.113281 126.617188 114.289062 140.808594 C 116.460938 126.617188 116.460938 126.617188 130.648438 124.441406 C 116.460938 122.269531 116.460938 122.269531 114.289062 108.078125 C 112.113281 122.269531 112.113281 122.269531 97.921875 124.441406 " fill-opacity="1" fill-rule="nonzero"/></g><g clip-path="url(#00fdc7293e)"><path fill="#ff3131" d="M 219.75 156.058594 C 231.933594 157.925781 231.933594 157.925781 233.804688 170.109375 C 235.667969 157.925781 235.667969 157.925781 247.851562 156.058594 C 235.667969 154.195312 235.667969 154.195312 233.804688 142.011719 C 231.933594 154.195312 231.933594 154.195312 219.75 156.058594 " fill-opacity="1" fill-rule="nonzero"/></g><g clip-path="url(#09963c136c)"><path fill="#ff3131" d="M 150.539062 197.214844 C 158.082031 198.371094 158.082031 198.371094 159.238281 205.910156 C 160.390625 198.371094 160.390625 198.371094 167.929688 197.214844 C 160.390625 196.0625 160.390625 196.0625 159.238281 188.523438 C 158.082031 196.0625 158.082031 196.0625 150.539062 197.214844 " fill-opacity="1" fill-rule="nonzero"/></g><g fill="#272626" fill-opacity="1"><g transform="translate(101.517998, 255.678284)"><g><path d="M 9.90625 -27.28125 L 15.8125 -27.28125 L 15.8125 -5.140625 C 15.8125 -1.429688 14.066406 0.421875 10.578125 0.421875 L 5.6875 0.421875 C 2.207031 0.421875 0.46875 -1.429688 0.46875 -5.140625 L 0.46875 -8.5625 L 6.078125 -8.5625 L 6.078125 -4.46875 C 6.078125 -4.25 6.148438 -4.050781 6.296875 -3.875 C 6.453125 -3.707031 6.644531 -3.625 6.875 -3.625 L 9.109375 -3.625 C 9.335938 -3.625 9.523438 -3.707031 9.671875 -3.875 C 9.828125 -4.050781 9.90625 -4.25 9.90625 -4.46875 Z M 9.90625 -27.28125 "/></g></g></g><g fill="#272626" fill-opacity="1"><g transform="translate(118.722035, 255.678284)"><g><path d="M 18.171875 -22.140625 L 18.171875 -5.140625 C 18.171875 -1.429688 16.429688 0.421875 12.953125 0.421875 L 7.34375 0.421875 C 3.851562 0.421875 2.109375 -1.429688 2.109375 -5.140625 L 2.109375 -22.140625 C 2.109375 -25.847656 3.851562 -27.703125 7.34375 -27.703125 L 12.953125 -27.703125 C 16.429688 -27.703125 18.171875 -25.847656 18.171875 -22.140625 Z M 12.265625 -4.46875 L 12.265625 -22.859375 C 12.265625 -23.078125 12.1875 -23.269531 12.03125 -23.4375 C 11.882812 -23.613281 11.695312 -23.703125 11.46875 -23.703125 L 8.8125 -23.703125 C 8.59375 -23.703125 8.40625 -23.613281 8.25 -23.4375 C 8.09375 -23.269531 8.015625 -23.078125 8.015625 -22.859375 L 8.015625 -4.46875 C 8.015625 -4.25 8.09375 -4.050781 8.25 -3.875 C 8.40625 -3.707031 8.59375 -3.625 8.8125 -3.625 L 11.46875 -3.625 C 11.695312 -3.625 11.882812 -3.707031 12.03125 -3.875 C 12.1875 -4.050781 12.265625 -4.25 12.265625 -4.46875 Z M 12.265625 -4.46875 "/></g></g></g><g fill="#272626" fill-opacity="1"><g transform="translate(139.130747, 255.678284)"><g><path d="M 15.4375 -14.921875 C 17.257812 -14.273438 18.171875 -12.785156 18.171875 -10.453125 L 18.171875 -5.5625 C 18.171875 -1.851562 16.429688 0 12.953125 0 L 2.109375 0 L 2.109375 -27.28125 L 12.609375 -27.28125 C 16.097656 -27.28125 17.84375 -25.425781 17.84375 -21.71875 L 17.84375 -19.234375 C 17.84375 -16.984375 17.039062 -15.546875 15.4375 -14.921875 Z M 11.140625 -23.28125 L 8.015625 -23.28125 L 8.015625 -15.984375 L 11.140625 -15.984375 C 11.359375 -15.984375 11.546875 -16.066406 11.703125 -16.234375 C 11.859375 -16.398438 11.9375 -16.597656 11.9375 -16.828125 L 11.9375 -22.4375 C 11.9375 -22.65625 11.859375 -22.847656 11.703125 -23.015625 C 11.546875 -23.191406 11.359375 -23.28125 11.140625 -23.28125 Z M 12.265625 -4.890625 L 12.265625 -11 C 12.265625 -11.226562 12.1875 -11.425781 12.03125 -11.59375 C 11.882812 -11.757812 11.695312 -11.84375 11.46875 -11.84375 L 8.015625 -11.84375 L 8.015625 -4.046875 L 11.46875 -4.046875 C 11.695312 -4.046875 11.882812 -4.128906 12.03125 -4.296875 C 12.1875 -4.460938 12.265625 -4.660156 12.265625 -4.890625 Z M 12.265625 -4.890625 "/></g></g></g><g fill="#272626" fill-opacity="1"><g transform="translate(159.244292, 255.678284)"><g/></g></g><g fill="#272626" fill-opacity="1"><g transform="translate(167.761981, 255.678284)"><g><path d="M 12.953125 -27.28125 C 16.429688 -27.28125 18.171875 -25.425781 18.171875 -21.71875 L 18.171875 -5.5625 C 18.171875 -1.851562 16.429688 0 12.953125 0 L 2.109375 0 L 2.109375 -27.28125 Z M 12.265625 -4.890625 L 12.265625 -22.4375 C 12.265625 -22.65625 12.1875 -22.847656 12.03125 -23.015625 C 11.882812 -23.191406 11.695312 -23.28125 11.46875 -23.28125 L 8.015625 -23.28125 L 8.015625 -4.046875 L 11.46875 -4.046875 C 11.695312 -4.046875 11.882812 -4.128906 12.03125 -4.296875 C 12.1875 -4.460938 12.265625 -4.660156 12.265625 -4.890625 Z M 12.265625 -4.890625 "/></g></g></g><g fill="#272626" fill-opacity="1"><g transform="translate(188.212858, 255.678284)"><g><path d="M 12.953125 -27.703125 C 16.429688 -27.703125 18.171875 -25.847656 18.171875 -22.140625 L 18.171875 0 L 12.265625 0 L 12.265625 -9.15625 L 8.015625 -9.15625 L 8.015625 0 L 2.109375 0 L 2.109375 -22.140625 C 2.109375 -25.847656 3.851562 -27.703125 7.34375 -27.703125 Z M 8.015625 -13.703125 L 12.265625 -13.703125 L 12.265625 -22.859375 C 12.265625 -23.078125 12.1875 -23.269531 12.03125 -23.4375 C 11.882812 -23.613281 11.695312 -23.703125 11.46875 -23.703125 L 8.8125 -23.703125 C 8.59375 -23.703125 8.40625 -23.613281 8.25 -23.4375 C 8.09375 -23.269531 8.015625 -23.078125 8.015625 -22.859375 Z M 8.015625 -13.703125 "/></g></g></g><g fill="#272626" fill-opacity="1"><g transform="translate(208.663735, 255.678284)"><g><path d="M 0.546875 -22.265625 L 0.546875 -27.28125 L 15.3125 -27.28125 L 15.3125 -22.265625 L 10.875 -22.265625 L 10.875 0 L 4.96875 0 L 4.96875 -22.265625 Z M 0.546875 -22.265625 "/></g></g></g><g fill="#272626" fill-opacity="1"><g transform="translate(224.560601, 255.678284)"><g><path d="M 8.015625 -27.28125 L 8.015625 0 L 2.109375 0 L 2.109375 -27.28125 Z M 8.015625 -27.28125 "/></g></g></g><g fill="#272626" fill-opacity="1"><g transform="translate(234.849287, 255.678284)"><g><path d="M 17.75 0 L 11.84375 0 L 11.84375 -22.640625 C 11.84375 -22.867188 11.765625 -23.066406 11.609375 -23.234375 C 11.460938 -23.398438 11.273438 -23.484375 11.046875 -23.484375 L 8.765625 -23.484375 C 8.546875 -23.484375 8.359375 -23.398438 8.203125 -23.234375 C 8.046875 -23.066406 7.96875 -22.867188 7.96875 -22.640625 L 7.96875 0 L 2.0625 0 L 2.0625 -22.140625 C 2.0625 -25.847656 3.804688 -27.703125 7.296875 -27.703125 L 12.53125 -27.703125 C 16.007812 -27.703125 17.75 -25.847656 17.75 -22.140625 Z M 17.75 0 "/></g></g></g><g fill="#272626" fill-opacity="1"><g transform="translate(254.45683, 255.678284)"><g><path d="M 10.078125 -10.84375 L 10.078125 -15.1875 L 17.875 -15.1875 L 17.875 -5.140625 C 17.875 -1.429688 16.132812 0.421875 12.65625 0.421875 L 7.34375 0.421875 C 3.851562 0.421875 2.109375 -1.429688 2.109375 -5.140625 L 2.109375 -22.140625 C 2.109375 -25.847656 3.851562 -27.703125 7.34375 -27.703125 L 12.65625 -27.703125 C 16.132812 -27.703125 17.875 -25.847656 17.875 -22.140625 L 17.875 -19.5625 L 12.265625 -19.5625 L 12.265625 -22.859375 C 12.265625 -23.078125 12.1875 -23.269531 12.03125 -23.4375 C 11.882812 -23.613281 11.695312 -23.703125 11.46875 -23.703125 L 8.8125 -23.703125 C 8.59375 -23.703125 8.40625 -23.613281 8.25 -23.4375 C 8.09375 -23.269531 8.015625 -23.078125 8.015625 -22.859375 L 8.015625 -4.46875 C 8.015625 -4.25 8.09375 -4.050781 8.25 -3.875 C 8.40625 -3.707031 8.59375 -3.625 8.8125 -3.625 L 11.46875 -3.625 C 11.695312 -3.625 11.882812 -3.707031 12.03125 -3.875 C 12.1875 -4.050781 12.265625 -4.25 12.265625 -4.46875 L 12.265625 -10.84375 Z M 10.078125 -10.84375 "/></g></g></g></svg>