<svg xmlns="http://www.w3.org/2000/svg" xmlns:xlink="http://www.w3.org/1999/xlink" width="500" zoomAndPan="magnify" viewBox="0 0 375 374.999991" height="500" preserveAspectRatio="xMidYMid meet" version="1.0"><defs><clipPath id="f83dd51491"><path d="M 112.5 115.125 L 236 115.125 L 236 239 L 112.5 239 Z M 112.5 115.125 " clip-rule="nonzero"/></clipPath><clipPath id="30be726a29"><path d="M 180 177 L 262.5 177 L 262.5 259.875 L 180 259.875 Z M 180 177 " clip-rule="nonzero"/></clipPath></defs><g clip-path="url(#f83dd51491)"><path fill="#eb1616" d="M 232.21875 161.097656 L 219.726562 161.097656 C 218.378906 161.097656 217.171875 160.285156 216.65625 159.039062 C 216.648438 159.023438 216.644531 159.011719 216.636719 158.996094 C 216.121094 157.753906 216.398438 156.320312 217.351562 155.367188 L 226.183594 146.535156 C 227.480469 145.238281 227.480469 143.136719 226.183594 141.839844 L 208.855469 124.511719 C 207.558594 123.214844 205.457031 123.214844 204.160156 124.511719 L 195.328125 133.339844 C 194.375 134.292969 192.941406 134.574219 191.695312 134.054688 C 191.683594 134.050781 191.667969 134.046875 191.65625 134.039062 C 190.410156 133.523438 189.597656 132.316406 189.597656 130.96875 L 189.597656 118.476562 C 189.597656 116.644531 188.109375 115.15625 186.277344 115.15625 L 161.769531 115.15625 C 159.933594 115.15625 158.449219 116.644531 158.449219 118.476562 L 158.449219 130.96875 C 158.449219 132.316406 157.632812 133.523438 156.386719 134.039062 C 156.375 134.046875 156.359375 134.050781 156.347656 134.054688 C 155.101562 134.574219 153.667969 134.292969 152.714844 133.339844 L 143.882812 124.511719 C 142.585938 123.214844 140.484375 123.214844 139.1875 124.511719 L 121.859375 141.839844 C 120.5625 143.136719 120.5625 145.238281 121.859375 146.535156 L 130.691406 155.367188 C 131.644531 156.320312 131.921875 157.753906 131.40625 158.996094 C 131.398438 159.011719 131.394531 159.023438 131.386719 159.039062 C 130.871094 160.285156 129.664062 161.097656 128.316406 161.097656 L 115.824219 161.097656 C 113.992188 161.097656 112.507812 162.585938 112.507812 164.417969 L 112.507812 188.929688 C 112.507812 190.761719 113.992188 192.246094 115.824219 192.246094 L 128.316406 192.246094 C 129.664062 192.246094 130.871094 193.0625 131.386719 194.308594 C 131.394531 194.320312 131.398438 194.335938 131.40625 194.347656 C 131.921875 195.59375 131.644531 197.027344 130.691406 197.980469 L 121.859375 206.8125 C 120.5625 208.109375 120.5625 210.210938 121.859375 211.507812 L 139.1875 228.835938 C 140.484375 230.132812 142.585938 230.132812 143.882812 228.835938 L 152.714844 220.003906 C 153.667969 219.050781 155.101562 218.773438 156.347656 219.289062 C 156.359375 219.296875 156.375 219.300781 156.386719 219.308594 C 157.632812 219.820312 158.449219 221.03125 158.449219 222.378906 L 158.449219 234.871094 C 158.449219 236.703125 159.933594 238.1875 161.769531 238.1875 L 179.371094 238.1875 C 180.457031 238.1875 181.453125 237.613281 182.011719 236.6875 C 182.316406 236.183594 182.6875 235.707031 183.121094 235.273438 C 183.429688 234.960938 183.210938 234.433594 182.773438 234.433594 C 178.691406 234.433594 175.371094 231.113281 175.371094 227.03125 L 175.371094 210.703125 C 175.371094 210.476562 175.1875 210.292969 174.960938 210.300781 C 174.648438 210.308594 174.335938 210.3125 174.023438 210.3125 C 155.449219 210.3125 140.394531 195.265625 140.382812 176.695312 C 140.371094 158.128906 155.453125 143.035156 174.023438 143.035156 C 190.207031 143.035156 203.722656 154.46875 206.9375 169.699219 C 207.40625 171.933594 209.59375 173.34375 211.824219 172.867188 C 212.324219 172.761719 212.84375 172.703125 213.371094 172.703125 L 229.699219 172.703125 C 230.082031 172.703125 230.460938 172.734375 230.828125 172.792969 C 233.308594 173.171875 235.539062 171.238281 235.539062 168.730469 L 235.539062 164.417969 C 235.539062 162.585938 234.050781 161.097656 232.21875 161.097656 " fill-opacity="1" fill-rule="nonzero"/></g><g clip-path="url(#30be726a29)"><path fill="#eb1616" d="M 221.535156 241.277344 C 209.160156 241.277344 199.128906 231.242188 199.128906 218.871094 C 199.128906 206.496094 209.160156 196.464844 221.535156 196.464844 C 233.910156 196.464844 243.941406 206.496094 243.941406 218.871094 C 243.941406 231.242188 233.910156 241.277344 221.535156 241.277344 Z M 260.296875 208.496094 L 251.976562 208.496094 C 251.078125 208.496094 250.273438 207.953125 249.929688 207.125 L 249.921875 207.097656 C 249.578125 206.269531 249.761719 205.3125 250.394531 204.679688 L 256.277344 198.796875 C 257.140625 197.933594 257.140625 196.53125 256.277344 195.667969 L 244.734375 184.125 C 243.871094 183.261719 242.472656 183.261719 241.609375 184.125 L 235.726562 190.007812 C 235.089844 190.644531 234.136719 190.828125 233.308594 190.484375 L 233.28125 190.472656 C 232.449219 190.128906 231.90625 189.324219 231.90625 188.429688 L 231.90625 180.109375 C 231.90625 178.886719 230.917969 177.898438 229.699219 177.898438 L 213.371094 177.898438 C 212.152344 177.898438 211.164062 178.886719 211.164062 180.109375 L 211.164062 188.429688 C 211.164062 189.324219 210.617188 190.128906 209.789062 190.472656 L 209.761719 190.484375 C 208.933594 190.828125 207.980469 190.644531 207.34375 190.007812 L 201.460938 184.125 C 200.597656 183.261719 199.199219 183.261719 198.335938 184.125 L 186.792969 195.667969 C 185.929688 196.53125 185.929688 197.933594 186.792969 198.796875 L 192.675781 204.679688 C 193.308594 205.3125 193.496094 206.269531 193.152344 207.097656 L 193.136719 207.125 C 192.796875 207.953125 191.992188 208.496094 191.09375 208.496094 L 182.773438 208.496094 C 181.550781 208.496094 180.5625 209.488281 180.5625 210.707031 L 180.5625 227.03125 C 180.5625 228.253906 181.550781 229.242188 182.773438 229.242188 L 191.09375 229.242188 C 191.992188 229.242188 192.796875 229.785156 193.136719 230.613281 L 193.152344 230.640625 C 193.496094 231.472656 193.308594 232.425781 192.675781 233.0625 L 186.792969 238.945312 C 185.929688 239.808594 185.929688 241.207031 186.792969 242.070312 L 198.335938 253.613281 C 199.199219 254.476562 200.597656 254.476562 201.460938 253.613281 L 207.34375 247.730469 C 207.980469 247.097656 208.933594 246.910156 209.761719 247.253906 L 209.789062 247.265625 C 210.617188 247.609375 211.164062 248.414062 211.164062 249.3125 L 211.164062 257.632812 C 211.164062 258.851562 212.152344 259.84375 213.371094 259.84375 L 229.699219 259.84375 C 230.917969 259.84375 231.90625 258.851562 231.90625 257.632812 L 231.90625 249.3125 C 231.90625 248.414062 232.449219 247.609375 233.28125 247.265625 L 233.308594 247.253906 C 234.136719 246.910156 235.089844 247.097656 235.726562 247.730469 L 241.609375 253.613281 C 242.472656 254.476562 243.871094 254.476562 244.734375 253.613281 L 256.277344 242.070312 C 257.140625 241.207031 257.140625 239.808594 256.277344 238.945312 L 250.394531 233.0625 C 249.761719 232.425781 249.578125 231.472656 249.921875 230.640625 L 249.929688 230.613281 C 250.273438 229.785156 251.078125 229.242188 251.976562 229.242188 L 260.296875 229.242188 C 261.519531 229.242188 262.507812 228.253906 262.507812 227.03125 L 262.507812 210.707031 C 262.507812 209.488281 261.519531 208.496094 260.296875 208.496094 " fill-opacity="1" fill-rule="nonzero"/></g></svg>